<svg fill="none" xmlns="http://www.w3.org/2000/svg" viewBox="0 0 24 24" class="design-iconfont">
  <path d="M7.72266 8.84375C7.07019 9.23538 6.4532 9.68493 5.88574 10.1553C5.39594 10.5613 4.95957 10.9688 4.58789 11.3418C4.22427 11.7067 4.22427 12.2933 4.58789 12.6582C4.95957 13.0312 5.39594 13.4387 5.88574 13.8447C7.59876 15.2646 9.76089 16.5 12 16.5C12.9525 16.4999 13.8902 16.2744 14.7861 15.9082L15.9238 17.0459C14.7189 17.6168 13.393 17.9999 12 18C8.01426 18 4.57253 14.8752 2.96582 13.1357C2.36516 12.4854 2.36516 11.5146 2.96582 10.8643C3.77622 9.98691 5.05359 8.75744 6.63184 7.75391L7.72266 8.84375ZM12 6C15.9855 6.00023 19.4265 9.12485 21.0332 10.8643C21.6339 11.5146 21.6339 12.4854 21.0332 13.1357C20.435 13.7833 19.5811 14.621 18.541 15.4199L17.4707 14.3496C17.6909 14.1848 17.9066 14.0168 18.1143 13.8447C18.6039 13.4388 19.0397 13.0312 19.4111 12.6582C19.7745 12.2932 19.7745 11.7068 19.4111 11.3418C19.0397 10.9688 18.6039 10.5612 18.1143 10.1553C16.4013 8.73543 14.2391 7.50016 12 7.5C11.5783 7.5 11.1588 7.54342 10.7451 7.62402L9.51172 6.39062C10.3071 6.14552 11.1411 6 12 6Z" fill="#2C2C2C"/>
  <path d="M10.5391 11.6611C10.5139 11.7701 10.5 11.8834 10.5 12C10.5 12.8284 11.1716 13.5 12 13.5C12.1163 13.5 12.2292 13.485 12.3379 13.46L13.4824 14.6045C13.0447 14.8541 12.5399 15 12 15C10.3431 15 9 13.6569 9 12C9 11.4596 9.1445 10.9535 9.39453 10.5156L10.5391 11.6611Z" fill="#2C2C2C"/>
  <rect x="4" y="5.12109" width="1.5" height="20" rx=".75" transform="rotate(-45 4 5.12109)" fill="#2C2C2C"/>
</svg>
