<svg fill="none" xmlns="http://www.w3.org/2000/svg" viewBox="0 0 24 24" class="design-iconfont">
  <path d="M12 6.75C13.7985 6.75 15.5144 7.4575 17.0049 8.41211C18.4915 9.36434 19.7043 10.5316 20.4824 11.374C20.8177 11.737 20.8177 12.263 20.4824 12.626C19.7043 13.4684 18.4915 14.6357 17.0049 15.5879C15.5144 16.5425 13.7985 17.25 12 17.25C10.2015 17.25 8.48559 16.5425 6.99512 15.5879C5.50846 14.6357 4.29567 13.4684 3.51758 12.626C3.18233 12.263 3.18233 11.737 3.51758 11.374C4.29567 10.5316 5.50846 9.36434 6.99512 8.41211C8.48559 7.4575 10.2015 6.75 12 6.75Z" stroke="#2C2C2C" stroke-width="1.5"/>
  <path stroke="#2C2C2C" stroke-width="1.5" d="M12 9.75A2.25 2.25 0 1 0 12 14.25A2.25 2.25 0 1 0 12 9.75Z"/>
</svg>
