<svg fill="none" xmlns="http://www.w3.org/2000/svg" viewBox="0 0 24 24" class="design-iconfont">
  <path d="M8 11V7.5C8 5.01472 10.0147 3 12.5 3C14.9853 3 17 5.01472 17 7.5V11" stroke="#2C2C2C" stroke-width="1.5"/>
  <path d="M19 9C20.6569 9 22 10.3431 22 12V18C22 19.6569 20.6569 21 19 21H6C4.34315 21 3 19.6569 3 18V12C3 10.3431 4.34315 9 6 9H19ZM12.5 11.5C11.3954 11.5 10.5 12.3954 10.5 13.5C10.5 14.3391 11.0174 15.0557 11.75 15.3525V18C11.75 18.4142 12.0858 18.75 12.5 18.75C12.9142 18.75 13.25 18.4142 13.25 18V15.3525C13.9826 15.0557 14.5 14.3391 14.5 13.5C14.5 12.3954 13.6046 11.5 12.5 11.5Z" fill="#2C2C2C"/>
</svg>
